<svg xmlns="http://www.w3.org/2000/svg" width="54" height="54" viewBox="0 0 54 54">
  <g id="logo" transform="translate(-64.825)">
    <g id="icon">
      <path id="Rectangle_4" data-name="Rectangle 4" d="M14,0H40A14,14,0,0,1,54,14V40A14,14,0,0,1,40,54H14A14,14,0,0,1,0,40V14A14,14,0,0,1,14,0Z" transform="translate(64.825)" fill="#6317c1"/>
      <g id="Gruppe_29" data-name="Gruppe 29">
        <path id="Rechteck_8" data-name="Rechteck 8" d="M0,0H20a9,9,0,0,1,9,9V9a0,0,0,0,1,0,0H0A0,0,0,0,1,0,9V0A0,0,0,0,1,0,0Z" transform="translate(80.825 7)" fill="#fff"/>
        <path id="Rechteck_9" data-name="Rechteck 9" d="M0,0H29a0,0,0,0,1,0,0V0a9,9,0,0,1-9,9H0A0,0,0,0,1,0,9V0A0,0,0,0,1,0,0Z" transform="translate(80.825 19)" fill="#fff"/>
        <path id="Rechteck_7" data-name="Rechteck 7" d="M.923,0h0A11.077,11.077,0,0,1,12,11.077v31a.923.923,0,0,1-.923.923h0A11.077,11.077,0,0,1,0,31.923v-31A.923.923,0,0,1,.923,0Z" transform="translate(78.825 6)" fill="#fff" stroke="#6317c1" strokeWidth="2.5"/>
      </g>
    </g>
  </g>
</svg>
