<svg id="close_2" data-name="close 2" xmlns="http://www.w3.org/2000/svg" width="24" height="24" viewBox="0 0 24 24">
  <path id="close_2_Background_Mask_" data-name="close 2 (Background/Mask)" d="M0,0H24V24H0Z" fill="none"/>
  <path id="Vector" d="M13.038,9l4.544-4.545a1.432,1.432,0,0,0,0-2.02L15.56.416a1.434,1.434,0,0,0-2.019,0L9,4.96,4.453.416a1.434,1.434,0,0,0-2.019,0L.417,2.435a1.432,1.432,0,0,0,0,2.02L4.96,9,.417,13.546a1.432,1.432,0,0,0,0,2.019l2.019,2.018a1.431,1.431,0,0,0,2.019,0L9,13.04l4.544,4.543a1.435,1.435,0,0,0,2.022,0l2.019-2.018a1.432,1.432,0,0,0,0-2.019Z" transform="translate(3 3)" fill="#a5a5a5"/>
</svg>
